<?xml version="1.0" encoding="iso-8859-1"?>
<!-- Generator: Adobe Illustrator 19.0.0, SVG Export Plug-In . SVG Version: 6.00 Build 0)  -->
<svg version="1.1" id="Capa_1" xmlns="http://www.w3.org/2000/svg" xmlns:xlink="http://www.w3.org/1999/xlink" x="0px" y="0px"
	 viewBox="0 0 480 480" style="enable-background:new 0 0 480 480;" xml:space="preserve">
<g>
	<path style="fill:#3D9AE2;" d="M472,472V200L300.52,300.52L472,472z"/>
	<path style="fill:#3D9AE2;" d="M8,200v272l171.48-171.48L8,200z"/>
</g>
<path style="fill:#1E81CE;" d="M240,336l-60.52-35.48L8,472h464L300.52,300.52L240,336z"/>
<path style="fill:#78B9EB;" d="M262.992,200h-61.864H8l171.48,100.52L240,336l60.52-35.48L472,200H262.992z"/>
<path style="fill:#FFD422;" d="M240,80h48v32h-48V80z"/>
<g>
	<path style="fill:#FF6243;" d="M288,64c0-8.837-7.163-16-16-16h-16c-8.837,0-16,7.163-16,16v16h48V64z"/>
	<path style="fill:#FF6243;" d="M288,128v-16h-48v16c0,8.837,7.163,16,16,16h16C280.837,144,288,136.837,288,128z"/>
</g>
<path d="M479.856,199.304c-0.001-0.47-0.047-0.939-0.136-1.4c-0.056-0.2-0.184-0.36-0.256-0.552
	c-0.13-0.352-0.285-0.694-0.464-1.024c-0.275-0.526-0.608-1.019-0.992-1.472c-0.23-0.28-0.476-0.547-0.736-0.8
	c-0.488-0.416-1.025-0.771-1.6-1.056c-0.257-0.165-0.524-0.315-0.8-0.448c-0.915-0.359-1.889-0.546-2.872-0.552H272v-40
	c13.255,0,24-10.745,24-24V64c0-13.255-10.745-24-24-24V8c0-4.418-3.582-8-8-8s-8,3.582-8,8v32c-13.255,0-24,10.745-24,24v64
	c0,13.255,10.745,24,24,24v40h-48v-28.688l10.344,10.344c3.178,3.069,8.243,2.981,11.312-0.197c2.994-3.1,2.994-8.015,0-11.115
	l-24-24c-3.125-3.124-8.19-3.123-11.314,0.002c-1.499,1.5-2.342,3.534-2.342,5.654v48H8c-0.985,0.014-1.958,0.209-2.872,0.576
	c-0.276,0.133-0.543,0.283-0.8,0.448c-0.575,0.285-1.112,0.64-1.6,1.056c-0.26,0.253-0.506,0.52-0.736,0.8
	c-0.386,0.454-0.719,0.951-0.992,1.48c-0.18,0.326-0.335,0.666-0.464,1.016c-0.072,0.192-0.2,0.352-0.256,0.552
	c-0.089,0.461-0.135,0.93-0.136,1.4C0.085,199.549,0.036,199.774,0,200v272c0,4.418,3.582,8,8,8l0,0h464c4.418,0,8-3.582,8-8V200
	C479.964,199.766,479.916,199.533,479.856,199.304z M280,104h-32V88h32V104z M256,56h16c4.418,0,8,3.582,8,8v8h-32v-8
	C248,59.582,251.582,56,256,56z M248,128v-8h32v8c0,4.418-3.582,8-8,8h-16C251.582,136,248,132.418,248,128z M16,213.968
	l150.496,88.216L16,452.688V213.968z M180.8,310.552l55.2,32.352c2.499,1.466,5.597,1.466,8.096,0l55.2-32.352L452.688,464H27.312
	L180.8,310.552z M313.544,302.184L464,213.968v238.72L313.544,302.184z M195.392,208c6.354,14.56,20.722,23.979,36.608,24
	c4.418,0,8-3.582,8-8s-3.582-8-8-8c-6.788-0.021-13.246-2.93-17.76-8h228.288L240,326.728L37.472,208H195.392z"/>
<g>
</g>
<g>
</g>
<g>
</g>
<g>
</g>
<g>
</g>
<g>
</g>
<g>
</g>
<g>
</g>
<g>
</g>
<g>
</g>
<g>
</g>
<g>
</g>
<g>
</g>
<g>
</g>
<g>
</g>
</svg>
